<svg width="25" height="66" viewBox="0 0 25 66" fill="none" xmlns="http://www.w3.org/2000/svg">
<rect y="66" width="66" height="25" transform="rotate(-90 0 66)" fill="url(#paint0_linear)"/>
<path d="M14.2051 50.5664L14.041 48.8789C14.6074 48.7773 15.0234 48.5723 15.2891 48.2637C15.5547 47.9512 15.6875 47.5312 15.6875 47.0039C15.6875 46.4453 15.5703 46.0254 15.3359 45.7441C15.0977 45.459 14.8203 45.3164 14.5039 45.3164C14.3008 45.3164 14.1289 45.377 13.9883 45.498C13.8438 45.6152 13.7188 45.8223 13.6133 46.1191C13.543 46.3223 13.418 46.7852 13.2383 47.5078C13.0078 48.4375 12.7246 49.0898 12.3887 49.4648C11.916 49.9922 11.3398 50.2559 10.6602 50.2559C10.2227 50.2559 9.81445 50.1328 9.43555 49.8867C9.05273 49.6367 8.76172 49.2793 8.5625 48.8145C8.36328 48.3457 8.26367 47.7812 8.26367 47.1211C8.26367 46.043 8.5 45.2324 8.97266 44.6895C9.44531 44.1426 10.0762 43.8555 10.8652 43.8281L10.9414 45.5625C10.5 45.6367 10.1836 45.7969 9.99219 46.043C9.79688 46.2852 9.69922 46.6504 9.69922 47.1387C9.69922 47.6426 9.80273 48.0371 10.0098 48.3223C10.1426 48.5059 10.3203 48.5977 10.543 48.5977C10.7461 48.5977 10.9199 48.5117 11.0645 48.3398C11.248 48.1211 11.4395 47.5898 11.6387 46.7461C11.8379 45.9023 12.0449 45.2793 12.2598 44.877C12.4707 44.4707 12.7617 44.1543 13.1328 43.9277C13.5 43.6973 13.9551 43.582 14.498 43.582C14.9902 43.582 15.4512 43.7188 15.8809 43.9922C16.3105 44.2656 16.6309 44.6523 16.8418 45.1523C17.0488 45.6523 17.1523 46.2754 17.1523 47.0215C17.1523 48.1074 16.9023 48.9414 16.4023 49.5234C15.8984 50.1055 15.166 50.4531 14.2051 50.5664ZM17 33.537V35.4237L15.0488 36.1737L15.0488 39.6073L17 40.3162V42.1561L8.41016 38.8104V36.9764L17 33.537ZM13.6016 36.7303L10.4141 37.9139L13.6016 39.0741V36.7303ZM17 31.7243H8.48047V29.9899H15.5527V25.6774H17V31.7243ZM17 23.5952H8.41016V17.2261H9.86328V21.8609H11.7676V17.5484H13.2148V21.8609H15.5527V17.062H17V23.5952Z" fill="white"/>
<defs>
<linearGradient id="paint0_linear" x1="-3.97479e-07" y1="81.5298" x2="65.8444" y2="84.8659" gradientUnits="userSpaceOnUse">
<stop stop-color="#9710E9"/>
<stop offset="1" stop-color="#FD8D43"/>
</linearGradient>
</defs>
</svg>
